<svg xmlns="http://www.w3.org/2000/svg" width="80" height="80" viewBox="0 0 80 80">
  <g id="Group317" transform="translate(-36.11 -402.11)" opacity="0.3">
    <g id="Path_454" data-name="Path 454" transform="translate(36.11 402.11)" fill="none">
      <path d="M16,0H64A16,16,0,0,1,80,16V64a16.114,16.114,0,0,1-8.9,14.343A15.615,15.615,0,0,1,64,80H16A16,16,0,0,1,0,64V16A16,16,0,0,1,16,0Z" stroke="none"/>
      <path d="M 16 2 C 12.26046752929688 2 8.7447509765625 3.456260681152344 6.100509643554688 6.100509643554688 C 3.456260681152344 8.7447509765625 2 12.26046752929688 2 16 L 2 64 C 2 67.73953247070313 3.456260681152344 71.2552490234375 6.100509643554688 73.89949035644531 C 8.7447509765625 76.54373931884766 12.26046752929688 78 16 78 L 64 78 C 66.214599609375 78 68.40656280517578 77.49235534667969 70.17548370361328 76.56882476806641 C 72.54195404052734 75.3389892578125 74.51527404785156 73.54119110107422 75.88210296630859 71.36978912353516 C 77.26764678955078 69.16867065429688 78 66.62024688720703 78 64 L 78 16 C 78 12.26046752929688 76.54373931884766 8.7447509765625 73.89949035644531 6.100509643554688 C 71.2552490234375 3.456260681152344 67.73953247070313 2 64 2 L 16 2 M 16 0 L 64 0 C 72.83655548095703 0 80 7.163444519042969 80 16 L 80 64 C 80 70.17675018310547 76.49993133544922 75.5360107421875 71.09775543212891 78.34348297119141 C 69.16802215576172 79.35097503662109 66.65979766845703 80 64 80 L 16 80 C 7.163444519042969 80 0 72.83655548095703 0 64 L 0 16 C 0 7.163444519042969 7.163444519042969 0 16 0 Z" stroke="none" fill="#fff"/>
    </g>
    <g id="Ellipse_54" data-name="Ellipse 54" transform="translate(51.609 417.609)" fill="none" stroke="#fff" stroke-width="2">
      <circle cx="5.654" cy="5.654" r="5.654" stroke="none"/>
      <circle cx="5.654" cy="5.654" r="4.654" fill="none"/>
    </g>
    <g id="Ellipse_57" data-name="Ellipse 57" transform="translate(70.456 417.609)" fill="none" stroke="#fff" stroke-width="2">
      <circle cx="5.654" cy="5.654" r="5.654" stroke="none"/>
      <circle cx="5.654" cy="5.654" r="4.654" fill="none"/>
    </g>
    <g id="Ellipse_58" data-name="Ellipse 58" transform="translate(89.303 417.609)" fill="none" stroke="#fff" stroke-width="2">
      <circle cx="5.654" cy="5.654" r="5.654" stroke="none"/>
      <circle cx="5.654" cy="5.654" r="4.654" fill="none"/>
    </g>
    <g id="Ellipse_55" data-name="Ellipse 55" transform="translate(51.609 436.456)" fill="none" stroke="#fff" stroke-width="2">
      <circle cx="5.654" cy="5.654" r="5.654" stroke="none"/>
      <circle cx="5.654" cy="5.654" r="4.654" fill="none"/>
    </g>
    <g id="Ellipse_56" data-name="Ellipse 56" transform="translate(51.609 455.303)" fill="none" stroke="#fff" stroke-width="2">
      <circle cx="5.654" cy="5.654" r="5.654" stroke="none"/>
      <circle cx="5.654" cy="5.654" r="4.654" fill="none"/>
    </g>
    <g id="future" transform="translate(62.915 428.917)">
      <path id="Path_146" data-name="Path 146" d="M29.755,14.429a.9.9,0,0,0-.9.9A13.525,13.525,0,1,1,21.79,3.437L20.667,4.56A.9.9,0,0,0,21.3,6.093h4.3a.9.9,0,0,0,.9-.9V.9A.9.9,0,0,0,24.964.263L23.107,2.12A15.327,15.327,0,0,0,4.489,26.164,15.327,15.327,0,0,0,30.653,15.327.9.9,0,0,0,29.755,14.429Z" transform="translate(21.675 43.35) rotate(-135)" fill="#fff"/>
      <path id="Path_147" data-name="Path 147" d="M249.907,152.307H243.4V145.8a1.2,1.2,0,1,0-2.4,0v7.706a1.2,1.2,0,0,0,1.2,1.2h7.705a1.2,1.2,0,1,0,0-2.4Z" transform="translate(-220.277 -130.405)" fill="#fff"/>
    </g>
  </g>
</svg>
