<svg xmlns="http://www.w3.org/2000/svg" width="48.203" height="48.847" viewBox="0 0 48.203 48.847">
  <path id="Path_185" data-name="Path 185" d="M88.383,58.651h15.434v.592a7.592,7.592,0,1,0,15.185,0v-.591H134.87a.859.859,0,0,0,.858-.86,24.168,24.168,0,0,0-19.547-23.7V31.178a4.566,4.566,0,0,0-3.7-4.479V18.86a.858.858,0,1,0-1.717,0V26.7a4.566,4.566,0,0,0-3.7,4.479v2.91a24.168,24.168,0,0,0-19.547,23.7A.859.859,0,0,0,88.383,58.651Zm28.9.592a5.876,5.876,0,1,1-11.751,0v-.591h11.751Zm-5.658-30.907a2.841,2.841,0,0,1,2.744,2.13h-5.488A2.841,2.841,0,0,1,111.627,28.336Zm-2.838,3.849h5.675v1.637a24.039,24.039,0,0,0-5.675,0Zm2.838,3.188A22.427,22.427,0,0,1,134,56.932H89.258A22.426,22.426,0,0,1,111.627,35.374Z" transform="translate(-87.525 -18)" fill="gray"/>
</svg>
